<svg width="302" height="20" viewBox="0 0 302 20" fill="none" xmlns="http://www.w3.org/2000/svg">
<path d="M43.92 15.168C43.136 15.168 42.4313 15.0233 41.806 14.734C41.1807 14.4447 40.714 14.076 40.406 13.628L41.092 12.886C41.372 13.2593 41.764 13.5627 42.268 13.796C42.7813 14.02 43.3227 14.132 43.892 14.132C44.62 14.132 45.194 13.978 45.614 13.67C46.034 13.3527 46.244 12.9233 46.244 12.382C46.244 11.822 46.0247 11.4067 45.586 11.136C45.1567 10.8653 44.5687 10.73 43.822 10.73H41.918V9.694H43.822C44.4847 9.694 45.026 9.568 45.446 9.316C45.8753 9.05467 46.09 8.66733 46.09 8.154C46.09 7.65 45.8753 7.258 45.446 6.978C45.026 6.698 44.494 6.558 43.85 6.558C42.7953 6.558 41.9133 6.936 41.204 7.692L40.56 6.964C40.9333 6.53467 41.4093 6.18933 41.988 5.928C42.576 5.65733 43.2247 5.522 43.934 5.522C44.886 5.522 45.6793 5.746 46.314 6.194C46.958 6.642 47.28 7.24867 47.28 8.014C47.28 8.63 47.07 9.12467 46.65 9.498C46.2393 9.862 45.7773 10.0907 45.264 10.184C45.7773 10.2307 46.2627 10.4547 46.72 10.856C47.1867 11.2573 47.42 11.7987 47.42 12.48C47.42 13.264 47.098 13.908 46.454 14.412C45.81 14.916 44.9653 15.168 43.92 15.168ZM54.5038 15H53.4538V14.23C52.8844 14.8553 52.1378 15.168 51.2138 15.168C50.5884 15.168 50.0378 14.9673 49.5618 14.566C49.0858 14.1647 48.8478 13.6187 48.8478 12.928C48.8478 12.2187 49.0811 11.6727 49.5478 11.29C50.0238 10.898 50.5791 10.702 51.2138 10.702C52.1751 10.702 52.9218 11.01 53.4538 11.626V10.408C53.4538 9.96 53.2951 9.61 52.9778 9.358C52.6604 9.106 52.2498 8.98 51.7458 8.98C50.9524 8.98 50.2618 9.29267 49.6738 9.918L49.1838 9.19C49.9024 8.44333 50.8031 8.07 51.8858 8.07C52.6604 8.07 53.2904 8.25667 53.7758 8.63C54.2611 9.00333 54.5038 9.57733 54.5038 10.352V15ZM51.5918 14.412C52.4318 14.412 53.0524 14.132 53.4538 13.572V12.298C53.0524 11.738 52.4318 11.458 51.5918 11.458C51.1064 11.458 50.7051 11.598 50.3878 11.878C50.0798 12.1487 49.9258 12.5033 49.9258 12.942C49.9258 13.3713 50.0798 13.726 50.3878 14.006C50.7051 14.2767 51.1064 14.412 51.5918 14.412ZM62.2366 15H61.1866V9.162H57.6586V15H56.6086V8.238H62.2366V15ZM65.3412 15H64.3332V8.238H65.3832V13.404L68.9252 8.238H69.9612V15H68.9112V9.736L65.3412 15ZM75.0398 15.168C74.0411 15.168 73.2291 14.832 72.6038 14.16C71.9785 13.4787 71.6658 12.6293 71.6658 11.612C71.6658 10.5947 71.9785 9.75 72.6038 9.078C73.2291 8.406 74.0411 8.07 75.0398 8.07C76.0851 8.07 76.9111 8.462 77.5178 9.246L76.8178 9.89C76.3885 9.302 75.8145 9.008 75.0958 9.008C74.3865 9.008 73.8171 9.25067 73.3878 9.736C72.9678 10.2213 72.7578 10.8467 72.7578 11.612C72.7578 12.3773 72.9678 13.0073 73.3878 13.502C73.8171 13.9873 74.3865 14.23 75.0958 14.23C75.8051 14.23 76.3791 13.936 76.8178 13.348L77.5178 13.992C76.9111 14.776 76.0851 15.168 75.0398 15.168ZM78.9895 8.238H80.0395V10.856H82.5735C83.2455 10.856 83.7681 11.0567 84.1415 11.458C84.5148 11.85 84.7015 12.34 84.7015 12.928C84.7015 13.516 84.5101 14.0107 84.1275 14.412C83.7541 14.804 83.2361 15 82.5735 15H78.9895V8.238ZM82.4615 11.78H80.0395V14.076H82.4615C82.8348 14.076 83.1195 13.9733 83.3155 13.768C83.5208 13.5533 83.6235 13.2733 83.6235 12.928C83.6235 12.5827 83.5208 12.3073 83.3155 12.102C83.1195 11.8873 82.8348 11.78 82.4615 11.78ZM95.5413 15H94.4913V9.162H90.9633V15H89.9133V8.238H95.5413V15ZM103.014 14.146C102.407 14.8273 101.6 15.168 100.592 15.168C99.5839 15.168 98.7719 14.8273 98.1559 14.146C97.5492 13.4647 97.2459 12.62 97.2459 11.612C97.2459 10.604 97.5492 9.764 98.1559 9.092C98.7719 8.41067 99.5839 8.07 100.592 8.07C101.6 8.07 102.407 8.41067 103.014 9.092C103.63 9.764 103.938 10.604 103.938 11.612C103.938 12.62 103.63 13.4647 103.014 14.146ZM98.9399 13.474C99.3506 13.978 99.9012 14.23 100.592 14.23C101.283 14.23 101.829 13.978 102.23 13.474C102.631 12.9607 102.832 12.34 102.832 11.612C102.832 10.884 102.631 10.268 102.23 9.764C101.829 9.26 101.283 9.008 100.592 9.008C99.9012 9.008 99.3506 9.26467 98.9399 9.778C98.5386 10.282 98.3379 10.8933 98.3379 11.612C98.3379 12.34 98.5386 12.9607 98.9399 13.474ZM108.461 16.722V14.132C108.806 14.0667 109.077 13.8613 109.273 13.516C109.469 13.1613 109.628 12.5127 109.749 11.57L110.183 8.238H114.887V14.076H115.671V16.722H114.621V15H109.511V16.722H108.461ZM111.107 9.162L110.799 11.696C110.64 12.8813 110.314 13.6747 109.819 14.076H113.837V9.162H111.107ZM122.483 14.146C121.876 14.8273 121.069 15.168 120.061 15.168C119.053 15.168 118.241 14.8273 117.625 14.146C117.018 13.4647 116.715 12.62 116.715 11.612C116.715 10.604 117.018 9.764 117.625 9.092C118.241 8.41067 119.053 8.07 120.061 8.07C121.069 8.07 121.876 8.41067 122.483 9.092C123.099 9.764 123.407 10.604 123.407 11.612C123.407 12.62 123.099 13.4647 122.483 14.146ZM118.409 13.474C118.819 13.978 119.37 14.23 120.061 14.23C120.751 14.23 121.297 13.978 121.699 13.474C122.1 12.9607 122.301 12.34 122.301 11.612C122.301 10.884 122.1 10.268 121.699 9.764C121.297 9.26 120.751 9.008 120.061 9.008C119.37 9.008 118.819 9.26467 118.409 9.778C118.007 10.282 117.807 10.8933 117.807 11.612C117.807 12.34 118.007 12.9607 118.409 13.474ZM129.85 8.238V9.162H126.168V15H125.118V8.238H129.85ZM136.592 14.146C135.985 14.8273 135.178 15.168 134.17 15.168C133.162 15.168 132.35 14.8273 131.734 14.146C131.127 13.4647 130.824 12.62 130.824 11.612C130.824 10.604 131.127 9.764 131.734 9.092C132.35 8.41067 133.162 8.07 134.17 8.07C135.178 8.07 135.985 8.41067 136.592 9.092C137.208 9.764 137.516 10.604 137.516 11.612C137.516 12.62 137.208 13.4647 136.592 14.146ZM132.518 13.474C132.929 13.978 133.479 14.23 134.17 14.23C134.861 14.23 135.407 13.978 135.808 13.474C136.209 12.9607 136.41 12.34 136.41 11.612C136.41 10.884 136.209 10.268 135.808 9.764C135.407 9.26 134.861 9.008 134.17 9.008C133.479 9.008 132.929 9.26467 132.518 9.778C132.117 10.282 131.916 10.8933 131.916 11.612C131.916 12.34 132.117 12.9607 132.518 13.474ZM143.022 15H139.228V8.238H142.952C143.54 8.238 144.002 8.39667 144.338 8.714C144.683 9.03133 144.856 9.45133 144.856 9.974C144.856 10.3567 144.748 10.688 144.534 10.968C144.328 11.2387 144.072 11.4207 143.764 11.514C144.109 11.598 144.398 11.7987 144.632 12.116C144.874 12.4333 144.996 12.7833 144.996 13.166C144.996 13.7167 144.818 14.16 144.464 14.496C144.118 14.832 143.638 15 143.022 15ZM142.812 14.076C143.148 14.076 143.414 13.9827 143.61 13.796C143.806 13.6093 143.904 13.3573 143.904 13.04C143.904 12.7507 143.806 12.5033 143.61 12.298C143.414 12.0927 143.148 11.99 142.812 11.99H140.278V14.076H142.812ZM142.77 11.066C143.087 11.066 143.334 10.982 143.512 10.814C143.689 10.6367 143.778 10.408 143.778 10.128C143.778 9.82933 143.689 9.596 143.512 9.428C143.334 9.25067 143.087 9.162 142.77 9.162H140.278V11.066H142.77ZM152.356 14.146C151.749 14.8273 150.942 15.168 149.934 15.168C148.926 15.168 148.114 14.8273 147.498 14.146C146.891 13.4647 146.588 12.62 146.588 11.612C146.588 10.604 146.891 9.764 147.498 9.092C148.114 8.41067 148.926 8.07 149.934 8.07C150.942 8.07 151.749 8.41067 152.356 9.092C152.972 9.764 153.28 10.604 153.28 11.612C153.28 12.62 152.972 13.4647 152.356 14.146ZM148.282 13.474C148.692 13.978 149.243 14.23 149.934 14.23C150.624 14.23 151.17 13.978 151.572 13.474C151.973 12.9607 152.174 12.34 152.174 11.612C152.174 10.884 151.973 10.268 151.572 9.764C151.17 9.26 150.624 9.008 149.934 9.008C149.243 9.008 148.692 9.26467 148.282 9.778C147.88 10.282 147.68 10.8933 147.68 11.612C147.68 12.34 147.88 12.9607 148.282 13.474ZM158.323 15.168C157.371 15.168 156.611 14.7713 156.041 13.978V17.576H154.991V8.238H156.041V9.246C156.293 8.89133 156.62 8.60667 157.021 8.392C157.423 8.17733 157.857 8.07 158.323 8.07C159.219 8.07 159.943 8.392 160.493 9.036C161.053 9.67067 161.333 10.5293 161.333 11.612C161.333 12.6947 161.053 13.558 160.493 14.202C159.943 14.846 159.219 15.168 158.323 15.168ZM158.057 14.23C158.72 14.23 159.247 13.9873 159.639 13.502C160.031 13.0073 160.227 12.3773 160.227 11.612C160.227 10.8467 160.031 10.2213 159.639 9.736C159.247 9.25067 158.72 9.008 158.057 9.008C157.656 9.008 157.264 9.11533 156.881 9.33C156.508 9.53533 156.228 9.78733 156.041 10.086V13.138C156.228 13.446 156.508 13.7073 156.881 13.922C157.264 14.1273 157.656 14.23 158.057 14.23ZM166.055 15.168C165.047 15.168 164.221 14.8413 163.577 14.188C162.933 13.5253 162.611 12.6667 162.611 11.612C162.611 10.6227 162.928 9.78733 163.563 9.106C164.198 8.41533 164.991 8.07 165.943 8.07C166.942 8.07 167.73 8.41533 168.309 9.106C168.897 9.78733 169.191 10.6507 169.191 11.696V11.962H163.717C163.764 12.6247 164.006 13.18 164.445 13.628C164.884 14.076 165.453 14.3 166.153 14.3C166.993 14.3 167.688 14.0153 168.239 13.446L168.743 14.132C168.052 14.8227 167.156 15.168 166.055 15.168ZM168.155 11.192C168.146 10.6133 167.95 10.0953 167.567 9.638C167.184 9.17133 166.638 8.938 165.929 8.938C165.257 8.938 164.725 9.16667 164.333 9.624C163.95 10.0813 163.745 10.604 163.717 11.192H168.155ZM171.942 15H170.892V8.238H171.942V11.052H175.47V8.238H176.52V15H175.47V11.976H171.942V15ZM179.666 15H178.616V8.238H179.666V11.052H183.194V8.238H184.244V15H183.194V11.976H179.666V15ZM191.717 14.146C191.11 14.8273 190.303 15.168 189.295 15.168C188.287 15.168 187.475 14.8273 186.859 14.146C186.252 13.4647 185.949 12.62 185.949 11.612C185.949 10.604 186.252 9.764 186.859 9.092C187.475 8.41067 188.287 8.07 189.295 8.07C190.303 8.07 191.11 8.41067 191.717 9.092C192.333 9.764 192.641 10.604 192.641 11.612C192.641 12.62 192.333 13.4647 191.717 14.146ZM187.643 13.474C188.054 13.978 188.604 14.23 189.295 14.23C189.986 14.23 190.532 13.978 190.933 13.474C191.334 12.9607 191.535 12.34 191.535 11.612C191.535 10.884 191.334 10.268 190.933 9.764C190.532 9.26 189.986 9.008 189.295 9.008C188.604 9.008 188.054 9.26467 187.643 9.778C187.242 10.282 187.041 10.8933 187.041 11.612C187.041 12.34 187.242 12.9607 187.643 13.474ZM197.335 15.168C196.336 15.168 195.524 14.832 194.899 14.16C194.273 13.4787 193.961 12.6293 193.961 11.612C193.961 10.5947 194.273 9.75 194.899 9.078C195.524 8.406 196.336 8.07 197.335 8.07C198.38 8.07 199.206 8.462 199.813 9.246L199.113 9.89C198.683 9.302 198.109 9.008 197.391 9.008C196.681 9.008 196.112 9.25067 195.683 9.736C195.263 10.2213 195.053 10.8467 195.053 11.612C195.053 12.3773 195.263 13.0073 195.683 13.502C196.112 13.9873 196.681 14.23 197.391 14.23C198.1 14.23 198.674 13.936 199.113 13.348L199.813 13.992C199.206 14.776 198.38 15.168 197.335 15.168ZM203.566 15H202.516V9.162H200.556V8.238H205.54V9.162H203.566V15ZM207.925 15H206.917V8.238H207.967V13.404L211.509 8.238H212.545V15H211.495V9.736L207.925 15Z" fill="white"/>
<g clip-path="url(#clip0_1_150)">
<path d="M5 0.625C5 0.45924 4.93415 0.300269 4.81694 0.183058C4.69973 0.065848 4.54076 0 4.375 0C4.20924 0 4.05027 0.065848 3.93306 0.183058C3.81585 0.300269 3.75 0.45924 3.75 0.625V1.25H2.5C1.83696 1.25 1.20107 1.51339 0.732233 1.98223C0.263392 2.45107 0 3.08696 0 3.75L0 5H20V3.75C20 3.08696 19.7366 2.45107 19.2678 1.98223C18.7989 1.51339 18.163 1.25 17.5 1.25H16.25V0.625C16.25 0.45924 16.1842 0.300269 16.0669 0.183058C15.9497 0.065848 15.7908 0 15.625 0C15.4592 0 15.3003 0.065848 15.1831 0.183058C15.0658 0.300269 15 0.45924 15 0.625V1.25H5V0.625ZM20 17.5V6.25H0V17.5C0 18.163 0.263392 18.7989 0.732233 19.2678C1.20107 19.7366 1.83696 20 2.5 20H17.5C18.163 20 18.7989 19.7366 19.2678 19.2678C19.7366 18.7989 20 18.163 20 17.5ZM11.875 8.75H13.125C13.2908 8.75 13.4497 8.81585 13.5669 8.93306C13.6842 9.05027 13.75 9.20924 13.75 9.375V10.625C13.75 10.7908 13.6842 10.9497 13.5669 11.0669C13.4497 11.1842 13.2908 11.25 13.125 11.25H11.875C11.7092 11.25 11.5503 11.1842 11.4331 11.0669C11.3158 10.9497 11.25 10.7908 11.25 10.625V9.375C11.25 9.20924 11.3158 9.05027 11.4331 8.93306C11.5503 8.81585 11.7092 8.75 11.875 8.75ZM15.625 8.75H16.875C17.0408 8.75 17.1997 8.81585 17.3169 8.93306C17.4342 9.05027 17.5 9.20924 17.5 9.375V10.625C17.5 10.7908 17.4342 10.9497 17.3169 11.0669C17.1997 11.1842 17.0408 11.25 16.875 11.25H15.625C15.4592 11.25 15.3003 11.1842 15.1831 11.0669C15.0658 10.9497 15 10.7908 15 10.625V9.375C15 9.20924 15.0658 9.05027 15.1831 8.93306C15.3003 8.81585 15.4592 8.75 15.625 8.75ZM2.5 13.125C2.5 12.9592 2.56585 12.8003 2.68306 12.6831C2.80027 12.5658 2.95924 12.5 3.125 12.5H4.375C4.54076 12.5 4.69973 12.5658 4.81694 12.6831C4.93415 12.8003 5 12.9592 5 13.125V14.375C5 14.5408 4.93415 14.6997 4.81694 14.8169C4.69973 14.9342 4.54076 15 4.375 15H3.125C2.95924 15 2.80027 14.9342 2.68306 14.8169C2.56585 14.6997 2.5 14.5408 2.5 14.375V13.125ZM6.875 12.5H8.125C8.29076 12.5 8.44973 12.5658 8.56694 12.6831C8.68415 12.8003 8.75 12.9592 8.75 13.125V14.375C8.75 14.5408 8.68415 14.6997 8.56694 14.8169C8.44973 14.9342 8.29076 15 8.125 15H6.875C6.70924 15 6.55027 14.9342 6.43306 14.8169C6.31585 14.6997 6.25 14.5408 6.25 14.375V13.125C6.25 12.9592 6.31585 12.8003 6.43306 12.6831C6.55027 12.5658 6.70924 12.5 6.875 12.5Z" fill="white"/>
</g>
<defs>
<clipPath id="clip0_1_150">
<rect width="20" height="20" fill="white"/>
</clipPath>
</defs>
</svg>
